<svg width="36" height="34" viewBox="0 0 36 34" fill="none" xmlns="http://www.w3.org/2000/svg">
<path d="M35.1294 12.1941H20.0682C19.587 12.1941 19.1976 12.5841 19.1976 13.0659C19.1976 13.5465 19.587 13.9365 20.0682 13.9365H34.2576V31.7769H1.7418V13.9371H8.5284C9.0096 13.9371 9.399 13.5471 9.399 13.0665C9.399 12.5847 9.0096 12.1947 8.5284 12.1947H0.8706C0.3894 12.1941 0 12.5847 0 13.0659V32.6493C0 33.1299 0.3894 33.5199 0.8706 33.5199H35.1294C35.6106 33.5199 36 33.1299 36 32.6493V13.0659C36 12.5847 35.6106 12.1941 35.1294 12.1941Z" fill="white"/>
<path d="M5.5434 18.9686C5.5434 19.1246 5.5878 19.2734 5.6646 19.4048L4.0842 22.1774C3.9876 22.3472 4.0158 22.562 4.1544 22.7L4.5798 23.1278C4.6638 23.2124 4.7754 23.2556 4.8888 23.2556C4.9626 23.2556 5.037 23.2382 5.1042 23.1992L7.8774 21.617C8.0124 21.6956 8.1624 21.7376 8.3136 21.7376C8.5368 21.7376 8.7594 21.653 8.9298 21.482L25.5678 4.84345C25.908 4.50325 25.908 3.95185 25.5684 3.61225L25.3956 3.43945L26.715 2.12065C27.0228 1.81165 26.9394 1.27945 26.5146 0.852846C26.1042 0.447246 25.5462 0.360246 25.248 0.655446L23.931 1.97365L23.6712 1.71385C23.5086 1.55065 23.286 1.45885 23.0556 1.45885C22.8252 1.45885 22.6032 1.55005 22.44 1.71385L5.799 18.3536C5.6358 18.5162 5.5434 18.7376 5.5434 18.9686ZM5.0628 22.2194L6.2862 20.0726L7.209 20.9948L5.0628 22.2194ZM25.767 1.36885C25.803 1.38805 25.8498 1.41985 25.9002 1.46965C25.9506 1.52005 25.9824 1.56685 26.0016 1.60225L24.78 2.82325L24.5472 2.58985L25.767 1.36885ZM23.0556 3.56185L23.721 4.22785L8.313 19.6358L7.6464 18.9692L23.0556 3.56185Z" fill="white"/>
<path d="M15.5142 7.82188C15.6258 7.82188 15.7368 7.77928 15.822 7.69408L21.1926 2.32348C21.363 2.15368 21.363 1.87768 21.1926 1.70788C21.0228 1.53748 20.7474 1.53748 20.577 1.70788L15.2064 7.07848C15.0366 7.24888 15.0366 7.52428 15.2064 7.69408C15.291 7.77928 15.4026 7.82188 15.5142 7.82188Z" fill="white"/>
<path d="M30.6774 27.3662H7.45201C7.21141 27.3662 7.01581 27.5606 7.01581 27.8012C7.01581 28.0418 7.21081 28.2374 7.45201 28.2374H30.6774C30.918 28.2374 31.1136 28.0418 31.1136 27.8012C31.1136 27.5606 30.918 27.3662 30.6774 27.3662Z" fill="white"/>
<path d="M30.6774 20.2556H15.684C15.4434 20.2556 15.2484 20.45 15.2484 20.6906C15.2484 20.9318 15.4428 21.1268 15.684 21.1268H30.6774C30.918 21.1268 31.1136 20.9324 31.1136 20.6906C31.113 20.45 30.918 20.2556 30.6774 20.2556Z" fill="white"/>
</svg>
