<svg width="54" height="66" viewBox="0 0 54 66" fill="none" xmlns="http://www.w3.org/2000/svg">
<path d="M17.4582 4.04345C17.4834 4.04105 17.5056 4.03985 17.5254 4.03865C17.544 4.08365 17.5662 4.14605 17.5908 4.22645C17.601 4.26065 17.6124 4.29365 17.625 4.32725L22.542 17.6197C22.563 17.6749 22.5768 17.7349 22.5834 17.7883C21.8826 18.2455 21.6042 19.1593 21.9672 19.9405C22.2564 20.5645 22.875 20.9311 23.5194 20.9311C23.7606 20.9311 24.0054 20.8801 24.2382 20.7715C26.0148 19.9471 26.334 17.9401 25.74 16.4083L20.8488 3.18605C20.2878 1.38605 18.9822 0.483052 17.1672 0.634852C16.2264 0.715252 15.5286 1.54385 15.6084 2.48405C15.6894 3.42545 16.5108 4.11905 17.4582 4.04345Z" fill="white"/>
<path d="M36.1782 44.0413C35.8578 43.7179 35.4222 43.5355 34.9668 43.5343C34.965 43.5343 34.9638 43.5343 34.9626 43.5343C34.509 43.5343 34.0746 43.7149 33.753 44.0353C33.4488 44.3389 33.216 44.6047 32.9988 44.8531C32.6256 45.2803 32.4012 45.5383 31.857 45.9019C31.4388 46.1797 30.8484 45.9799 30.5238 45.4939L17.1744 25.3819C16.8054 24.8293 16.8804 24.0223 17.3244 23.7247C17.8542 23.3725 17.9346 23.3431 18.3204 23.2069C18.5886 23.1115 18.9546 22.9819 19.5378 22.7341C20.3892 22.3729 20.7996 21.4015 20.4642 20.5399L13.7172 3.20288C13.5462 2.76428 13.2024 2.41508 12.7662 2.23808C12.3288 2.06168 11.8398 2.07248 11.412 2.26808C9.1134 3.31988 7.1112 4.67828 5.2764 6.43508C3.3492 8.32388 1.338 11.0965 0.596998 12.8821C0.493798 13.1293 0.451197 13.3975 0.470997 13.6645C1.0158 20.9773 5.9184 32.6791 12.6684 42.7819C19.3134 52.7299 28.4562 61.9477 34.9026 65.1979C35.1414 65.3179 35.4054 65.3809 35.6724 65.3809H35.6742C38.202 65.3785 41.5242 64.0765 42.8514 63.5101C45.3066 62.4319 47.8422 60.8899 49.1622 59.6719C49.503 59.3575 49.7016 58.9177 49.7124 58.4539C49.7232 57.9901 49.5444 57.5419 49.218 57.2125L36.1782 44.0413Z" fill="white"/>
<path d="M52.7124 51.4771C52.6746 51.4303 52.6332 51.3859 52.59 51.3433L42.2016 41.1439C41.0334 40.0357 39.0114 39.5701 37.5672 40.8877C36.8694 41.5243 36.8202 42.6061 37.4568 43.3027C38.049 43.9513 39.0258 44.0401 39.72 43.5373C39.7602 43.5571 39.8016 43.5817 39.8262 43.6045L50.0796 53.6713C50.1264 53.7853 50.145 54.0409 50.0424 54.2269C49.5864 55.0543 49.887 56.0941 50.7138 56.5507C50.976 56.6947 51.2586 56.7631 51.5382 56.7631C52.1412 56.7631 52.7256 56.4439 53.037 55.8787C53.8044 54.4897 53.6682 52.6381 52.7124 51.4771Z" fill="white"/>
</svg>
