<svg width="248" height="139" viewBox="0 0 248 139" fill="none" xmlns="http://www.w3.org/2000/svg">
<g filter="url(#filter0_d)">
<path d="M152.5 16.3365L230 30.3365L180.5 115.336L98 93.836L152.5 16.3365Z" fill="#D7569C"/>
<path d="M152.5 16.3365L230 30.3365L180.5 115.336L98 93.836L152.5 16.3365Z" fill="#D7569C"/>
<path d="M117.5 15.3365L195 29.3365L145.5 114.336L63 92.8365L117.5 15.3365Z" fill="url(#paint0_linear)"/>
<path d="M117.5 15.3365L195 29.3365L145.5 114.336L63 92.8365L117.5 15.3365Z" fill="url(#paint1_linear)"/>
<path d="M72.4999 16L150 30L100.5 115L18 93.5L72.4999 16Z" fill="#6DAAE1"/>
<path d="M72.4999 16L150 30L100.5 115L18 93.5L72.4999 16Z" fill="#6DAAE1"/>
</g>
<path d="M51.0729 76H57.4089L58.2009 64.408C58.3449 62.464 58.2009 60.088 58.2009 60.088H58.2729C58.2729 60.088 59.1369 62.788 59.7129 64.408L62.4129 71.86H67.8129L70.5129 64.408C71.0889 62.788 71.9529 60.088 71.9529 60.088H72.0249C72.0249 60.088 71.8809 62.464 72.0249 64.408L72.8169 76H79.1169L77.0289 50.26H70.1889L66.4449 61.132C65.8689 62.788 65.1489 65.38 65.1489 65.38H65.0769C65.0769 65.38 64.3569 62.788 63.7809 61.132L60.0369 50.26H53.1969L51.0729 76ZM82.9697 68.368H94.2737V62.968H82.9697V68.368ZM99.0848 76H108.553C113.665 76 118.345 73.948 118.345 68.332C118.345 66.064 117.265 63.436 114.313 62.536V62.464C116.257 61.348 117.301 59.152 117.301 56.992C117.301 52.564 113.701 50.26 108.553 50.26H99.0848V76ZM105.385 60.232V55.66H108.517C110.209 55.66 110.893 56.668 110.893 57.856C110.893 59.08 110.209 60.232 108.625 60.232H105.385ZM105.385 70.6V65.272H109.201C111.037 65.272 111.901 66.46 111.901 67.9C111.901 69.34 111.001 70.6 109.165 70.6H105.385ZM122.393 76H128.729L135.893 64.012C136.901 62.32 138.053 59.62 138.053 59.62H138.125C138.125 59.62 137.837 62.392 137.837 64.012V76H144.137V50.26H137.765L130.637 62.284C129.629 63.976 128.477 66.676 128.477 66.676H128.405C128.405 66.676 128.693 63.904 128.693 62.284V50.26H122.393V76ZM155.114 76H161.414V55.66H169.226V50.26H147.302V55.66H155.114V76ZM170.384 62.968C170.384 70.528 176.072 76.432 183.848 76.432C191.624 76.432 197.312 70.528 197.312 62.968C197.312 55.588 191.624 49.828 183.848 49.828C176.072 49.828 170.384 55.588 170.384 62.968ZM176.9 62.968C176.9 58.756 179.996 55.588 183.848 55.588C187.7 55.588 190.796 58.756 190.796 62.968C190.796 67.36 187.7 70.672 183.848 70.672C179.996 70.672 176.9 67.36 176.9 62.968ZM98.3775 91.484C98.3775 95.264 101.221 98.216 105.109 98.216C108.997 98.216 111.841 95.264 111.841 91.484C111.841 87.794 108.997 84.914 105.109 84.914C101.221 84.914 98.3775 87.794 98.3775 91.484ZM101.635 91.484C101.635 89.378 103.183 87.794 105.109 87.794C107.035 87.794 108.583 89.378 108.583 91.484C108.583 93.68 107.035 95.336 105.109 95.336C103.183 95.336 101.635 93.68 101.635 91.484ZM113.845 98H116.995V92.78H118.291L121.009 98H124.537L120.865 91.322V91.286L124.339 85.13H120.955L118.291 90.098H116.995V85.13H113.845V98ZM125.992 98H129.142V92.96H133.822V98H136.972V85.13H133.822V90.278H129.142V85.13H125.992V98ZM138.263 98H141.503L142.277 95.3H146.291L147.083 98H150.323L145.949 85.13H142.637L138.263 98ZM143.015 92.78L143.753 90.278C143.987 89.468 144.275 88.064 144.275 88.064H144.311C144.311 88.064 144.599 89.468 144.833 90.278L145.553 92.78H143.015Z" fill="white"/>
<path d="M49.3809 79.6H198.608V81.4H49.3809V79.6Z" fill="white"/>
<defs>
<filter id="filter0_d" x="3" y="10.3365" width="242" height="129.999" filterUnits="userSpaceOnUse" color-interpolation-filters="sRGB">
<feFlood flood-opacity="0" result="BackgroundImageFix"/>
<feColorMatrix in="SourceAlpha" type="matrix" values="0 0 0 0 0 0 0 0 0 0 0 0 0 0 0 0 0 0 127 0"/>
<feOffset dy="10"/>
<feGaussianBlur stdDeviation="7.5"/>
<feColorMatrix type="matrix" values="0 0 0 0 0 0 0 0 0 0 0 0 0 0 0 0 0 0 0.2 0"/>
<feBlend mode="normal" in2="BackgroundImageFix" result="effect1_dropShadow"/>
<feBlend mode="normal" in="SourceGraphic" in2="effect1_dropShadow" result="shape"/>
</filter>
<linearGradient id="paint0_linear" x1="159.696" y1="8.7056" x2="98.4322" y2="113.542" gradientUnits="userSpaceOnUse">
<stop stop-color="#728ABF"/>
<stop offset="1" stop-color="#AF6DA9"/>
</linearGradient>
<linearGradient id="paint1_linear" x1="159.696" y1="8.7056" x2="98.4322" y2="113.542" gradientUnits="userSpaceOnUse">
<stop stop-color="#728ABF"/>
<stop offset="1" stop-color="#AF6DA9"/>
</linearGradient>
<clipPath id="clip0">
</clipPath>
</defs>
</svg>
