<svg width="53" height="53" viewBox="0 0 53 53" fill="none" xmlns="http://www.w3.org/2000/svg">
<path d="M44.7349 17.6418C44.7349 18.0772 44.7349 18.5127 44.7349 18.8859C44.7349 31.7624 34.9065 46.6294 16.9914 46.6294C11.4552 46.6294 6.35436 45.012 2 42.275C2.74646 42.3372 3.55513 42.3994 4.30159 42.3994C8.84256 42.3994 13.0725 40.8443 16.4316 38.2317C12.1394 38.1695 8.53154 35.308 7.34964 31.4513C7.97169 31.5757 8.53154 31.6379 9.21579 31.6379C10.0867 31.6379 10.9575 31.5135 11.7662 31.2647C7.28743 30.3938 3.92836 26.4749 3.92836 21.7473C3.92836 21.6851 3.92836 21.6851 3.92836 21.6229C5.23467 22.3694 6.72759 22.8048 8.34492 22.867C5.73231 21.1253 3.99056 18.1394 3.99056 14.7182C3.99056 12.9142 4.4882 11.2347 5.29687 9.80395C10.0867 15.7134 17.3025 19.5701 25.3891 20.0056C25.2025 19.3213 25.1403 18.5127 25.1403 17.7662C25.1403 12.3544 29.4947 8 34.9065 8C37.7057 8 40.2561 9.1819 41.9979 11.0481C44.2373 10.6126 46.29 9.80395 48.2184 8.68426C47.4719 10.9858 45.9168 12.852 43.9262 14.0961C45.9168 13.8473 47.783 13.3496 49.5247 12.541C48.2806 14.5315 46.6633 16.2733 44.7349 17.6418Z" fill="white"/>
</svg>
