<svg width="54" height="53" viewBox="0 0 54 53" fill="none" xmlns="http://www.w3.org/2000/svg">
<path fill-rule="evenodd" clip-rule="evenodd" d="M51.8638 13.1345C52.233 11.9043 51.8638 11 50.1075 11H44.3004C42.8237 11 42.1434 11.7811 41.7743 12.6426C41.7743 12.6426 38.8209 19.8406 34.6372 24.5162C33.2838 25.8697 32.6686 26.2998 31.9303 26.2998C31.5611 26.2998 31.0269 25.8697 31.0269 24.6394V13.1345C31.0269 11.6579 30.5984 11 29.3677 11H20.2421C19.3196 11 18.7646 11.6852 18.7646 12.3348C18.7646 13.7348 20.856 14.0575 21.0717 17.9947V26.5466C21.0717 28.4215 20.7332 28.7616 19.9949 28.7616C18.0263 28.7616 13.2378 21.5309 10.3973 13.2577C9.84065 11.6496 9.28234 11 7.79819 11H1.99103C0.331838 11 0 11.7811 0 12.6426C0 14.1807 1.96904 21.8096 9.16702 31.8992C13.9662 38.7889 20.7266 42.5246 26.8789 42.5246C30.5706 42.5246 31.0269 41.695 31.0269 40.266V35.0583C31.0269 33.3991 31.3765 33.0681 32.545 33.0681C33.407 33.0681 34.8832 33.4986 38.3289 36.8207C42.2662 40.7576 42.9149 42.5246 45.13 42.5246H50.9371C52.5963 42.5246 53.4259 41.695 52.9472 40.0578C52.4238 38.426 50.5439 36.0592 48.0493 33.2526C46.6958 31.6528 44.6654 29.9301 44.0507 29.069C43.1891 27.9615 43.4351 27.4695 44.0507 26.4856C44.0507 26.4856 51.1254 16.5189 51.8638 13.135V13.1345Z" fill="white"/>
</svg>
