<svg width="248" height="139" viewBox="0 0 248 139" fill="none" xmlns="http://www.w3.org/2000/svg">
<g clip-path="url(#clip0)">
<g filter="url(#filter0_d)">
<path d="M152.5 23.3365L230 37.3365L180.5 122.336L98 100.836L152.5 23.3365Z" fill="#D7569C"/>
<path d="M152.5 23.3365L230 37.3365L180.5 122.336L98 100.836L152.5 23.3365Z" fill="#D7569C"/>
<path d="M117.5 22.3365L195 36.3365L145.5 121.336L63 99.8365L117.5 22.3365Z" fill="url(#paint0_linear)"/>
<path d="M117.5 22.3365L195 36.3365L145.5 121.336L63 99.8365L117.5 22.3365Z" fill="url(#paint1_linear)"/>
<path d="M72.4999 23L150 37L100.5 122L18 100.5L72.4999 23Z" fill="#6DAAE1"/>
<path d="M72.4999 23L150 37L100.5 122L18 100.5L72.4999 23Z" fill="#6DAAE1"/>
</g>
<path d="M51.0729 83H57.4089L58.2009 71.408C58.3449 69.464 58.2009 67.088 58.2009 67.088H58.2729C58.2729 67.088 59.1369 69.788 59.7129 71.408L62.4129 78.86H67.8129L70.5129 71.408C71.0889 69.788 71.9529 67.088 71.9529 67.088H72.0249C72.0249 67.088 71.8809 69.464 72.0249 71.408L72.8169 83H79.1169L77.0289 57.26H70.1889L66.4449 68.132C65.8689 69.788 65.1489 72.38 65.1489 72.38H65.0769C65.0769 72.38 64.3569 69.788 63.7809 68.132L60.0369 57.26H53.1969L51.0729 83ZM82.9697 75.368H94.2737V69.968H82.9697V75.368ZM99.0848 83H108.553C113.665 83 118.345 80.948 118.345 75.332C118.345 73.064 117.265 70.436 114.313 69.536V69.464C116.257 68.348 117.301 66.152 117.301 63.992C117.301 59.564 113.701 57.26 108.553 57.26H99.0848V83ZM105.385 67.232V62.66H108.517C110.209 62.66 110.893 63.668 110.893 64.856C110.893 66.08 110.209 67.232 108.625 67.232H105.385ZM105.385 77.6V72.272H109.201C111.037 72.272 111.901 73.46 111.901 74.9C111.901 76.34 111.001 77.6 109.165 77.6H105.385ZM122.393 83H128.729L135.893 71.012C136.901 69.32 138.053 66.62 138.053 66.62H138.125C138.125 66.62 137.837 69.392 137.837 71.012V83H144.137V57.26H137.765L130.637 69.284C129.629 70.976 128.477 73.676 128.477 73.676H128.405C128.405 73.676 128.693 70.904 128.693 69.284V57.26H122.393V83ZM155.114 83H161.414V62.66H169.226V57.26H147.302V62.66H155.114V83ZM170.384 69.968C170.384 77.528 176.072 83.432 183.848 83.432C191.624 83.432 197.312 77.528 197.312 69.968C197.312 62.588 191.624 56.828 183.848 56.828C176.072 56.828 170.384 62.588 170.384 69.968ZM176.9 69.968C176.9 65.756 179.996 62.588 183.848 62.588C187.7 62.588 190.796 65.756 190.796 69.968C190.796 74.36 187.7 77.672 183.848 77.672C179.996 77.672 176.9 74.36 176.9 69.968ZM98.3775 98.484C98.3775 102.264 101.221 105.216 105.109 105.216C108.997 105.216 111.841 102.264 111.841 98.484C111.841 94.794 108.997 91.914 105.109 91.914C101.221 91.914 98.3775 94.794 98.3775 98.484ZM101.635 98.484C101.635 96.378 103.183 94.794 105.109 94.794C107.035 94.794 108.583 96.378 108.583 98.484C108.583 100.68 107.035 102.336 105.109 102.336C103.183 102.336 101.635 100.68 101.635 98.484ZM113.845 105H116.995V99.78H118.291L121.009 105H124.537L120.865 98.322V98.286L124.339 92.13H120.955L118.291 97.098H116.995V92.13H113.845V105ZM125.992 105H129.142V99.96H133.822V105H136.972V92.13H133.822V97.278H129.142V92.13H125.992V105ZM138.263 105H141.503L142.277 102.3H146.291L147.083 105H150.323L145.949 92.13H142.637L138.263 105ZM143.015 99.78L143.753 97.278C143.987 96.468 144.275 95.064 144.275 95.064H144.311C144.311 95.064 144.599 96.468 144.833 97.278L145.553 99.78H143.015Z" fill="white"/>
<path d="M49.3809 86.6H198.608V88.4H49.3809V86.6Z" fill="white"/>
</g>
<defs>
<filter id="filter0_d" x="-2.00003" y="-15" width="252.128" height="187.248" filterUnits="userSpaceOnUse" color-interpolation-filters="sRGB">
<feFlood flood-opacity="0" result="BackgroundImageFix"/>
<feColorMatrix in="SourceAlpha" type="matrix" values="0 0 0 0 0 0 0 0 0 0 0 0 0 0 0 0 0 0 127 0"/>
<feOffset dy="10"/>
<feGaussianBlur stdDeviation="10"/>
<feColorMatrix type="matrix" values="0 0 0 0 0 0 0 0 0 0 0 0 0 0 0 0 0 0 0.3 0"/>
<feBlend mode="normal" in2="BackgroundImageFix" result="effect1_dropShadow"/>
<feBlend mode="normal" in="SourceGraphic" in2="effect1_dropShadow" result="shape"/>
</filter>
<linearGradient id="paint0_linear" x1="159.696" y1="15.7056" x2="98.4322" y2="120.542" gradientUnits="userSpaceOnUse">
<stop stop-color="#728ABF"/>
<stop offset="1" stop-color="#AF6DA9"/>
</linearGradient>
<linearGradient id="paint1_linear" x1="159.696" y1="15.7056" x2="98.4322" y2="120.542" gradientUnits="userSpaceOnUse">
<stop stop-color="#728ABF"/>
<stop offset="1" stop-color="#AF6DA9"/>
</linearGradient>
<clipPath id="clip0">
</clipPath>
</defs>
</svg>
